<svg width="111" height="36" viewBox="0 0 111 36" fill="none" xmlns="http://www.w3.org/2000/svg">
<rect width="111" height="36" rx="8" fill="#F9F5FF"/>
<path d="M17.0043 23V12.8182H23.6264V14.3643H18.8487V17.1286H23.2834V18.6747H18.8487V21.4538H23.6662V23H17.0043ZM26.9002 15.3636L28.4414 18.1825L30.0075 15.3636H31.9116L29.6097 19.1818L31.9513 23H30.0572L28.4414 20.2507L26.8406 23H24.9315L27.2582 19.1818L24.9911 15.3636H26.9002ZM33.3036 25.8636V15.3636H35.0735V16.6264H35.1779C35.2707 16.4408 35.4016 16.2436 35.5707 16.0348C35.7397 15.8227 35.9684 15.642 36.2567 15.4929C36.5451 15.3404 36.913 15.2642 37.3604 15.2642C37.9504 15.2642 38.4824 15.415 38.9563 15.7166C39.4336 16.0149 39.8114 16.4574 40.0898 17.044C40.3716 17.6274 40.5124 18.3433 40.5124 19.1918C40.5124 20.0303 40.3749 20.7429 40.0998 21.3295C39.8247 21.9162 39.4502 22.3636 38.9762 22.6719C38.5022 22.9801 37.9653 23.1342 37.3654 23.1342C36.9279 23.1342 36.565 23.0613 36.2766 22.9155C35.9883 22.7696 35.7563 22.594 35.5806 22.3885C35.4083 22.1797 35.274 21.9825 35.1779 21.7969H35.1033V25.8636H33.3036ZM35.0685 19.1818C35.0685 19.6757 35.1381 20.1082 35.2773 20.4794C35.4199 20.8506 35.6237 21.1406 35.8888 21.3494C36.1573 21.5549 36.4821 21.6577 36.8633 21.6577C37.261 21.6577 37.5941 21.5516 37.8626 21.3395C38.131 21.1241 38.3332 20.8307 38.4691 20.4595C38.6083 20.085 38.6779 19.6591 38.6779 19.1818C38.6779 18.7079 38.61 18.2869 38.4741 17.919C38.3382 17.5511 38.136 17.2628 37.8675 17.054C37.5991 16.8452 37.2643 16.7408 36.8633 16.7408C36.4788 16.7408 36.1523 16.8419 35.8839 17.044C35.6154 17.2462 35.4116 17.5296 35.2724 17.8942C35.1365 18.2588 35.0685 18.688 35.0685 19.1818ZM43.8533 12.8182V23H42.0536V12.8182H43.8533ZM49.035 23.1491C48.2892 23.1491 47.6429 22.9851 47.0961 22.657C46.5492 22.3288 46.1249 21.8698 45.8233 21.2798C45.525 20.6899 45.3759 20.0005 45.3759 19.2116C45.3759 18.4228 45.525 17.7318 45.8233 17.1385C46.1249 16.5452 46.5492 16.0845 47.0961 15.7564C47.6429 15.4283 48.2892 15.2642 49.035 15.2642C49.7807 15.2642 50.427 15.4283 50.9739 15.7564C51.5208 16.0845 51.9434 16.5452 52.2417 17.1385C52.5433 17.7318 52.6941 18.4228 52.6941 19.2116C52.6941 20.0005 52.5433 20.6899 52.2417 21.2798C51.9434 21.8698 51.5208 22.3288 50.9739 22.657C50.427 22.9851 49.7807 23.1491 49.035 23.1491ZM49.0449 21.7074C49.4493 21.7074 49.7873 21.5964 50.0591 21.3743C50.3309 21.1489 50.5331 20.8473 50.6657 20.4695C50.8016 20.0916 50.8695 19.6707 50.8695 19.2067C50.8695 18.7393 50.8016 18.3168 50.6657 17.9389C50.5331 17.5578 50.3309 17.2545 50.0591 17.0291C49.7873 16.8037 49.4493 16.6911 49.0449 16.6911C48.6306 16.6911 48.2859 16.8037 48.0108 17.0291C47.7391 17.2545 47.5352 17.5578 47.3993 17.9389C47.2667 18.3168 47.2005 18.7393 47.2005 19.2067C47.2005 19.6707 47.2667 20.0916 47.3993 20.4695C47.5352 20.8473 47.7391 21.1489 48.0108 21.3743C48.2859 21.5964 48.6306 21.7074 49.0449 21.7074ZM54.2216 23V15.3636H55.9666V16.6364H56.0462C56.1854 16.1955 56.424 15.8558 56.7621 15.6172C57.1035 15.3752 57.4929 15.2543 57.9304 15.2543C58.0298 15.2543 58.1409 15.2592 58.2635 15.2692C58.3894 15.2758 58.4938 15.2874 58.5767 15.304V16.9595C58.5005 16.933 58.3795 16.9098 58.2138 16.8899C58.0514 16.8667 57.8939 16.8551 57.7415 16.8551C57.4134 16.8551 57.1184 16.9264 56.8565 17.0689C56.598 17.2081 56.3942 17.402 56.245 17.6506C56.0959 17.8991 56.0213 18.1858 56.0213 18.5107V23H54.2216ZM62.8386 23.1491C62.073 23.1491 61.4118 22.9901 60.8549 22.6719C60.3014 22.3504 59.8755 21.8963 59.5772 21.3097C59.2789 20.7197 59.1298 20.0253 59.1298 19.2266C59.1298 18.4411 59.2789 17.7517 59.5772 17.1584C59.8788 16.5618 60.2998 16.0978 60.84 15.7663C61.3803 15.4316 62.015 15.2642 62.7441 15.2642C63.2148 15.2642 63.6589 15.3404 64.0765 15.4929C64.4975 15.642 64.8687 15.8741 65.1902 16.1889C65.515 16.5038 65.7702 16.9048 65.9558 17.392C66.1414 17.8759 66.2342 18.4527 66.2342 19.1222V19.674H59.975V18.4609H64.5091C64.5057 18.1162 64.4312 17.8097 64.2853 17.5412C64.1395 17.2694 63.9357 17.0556 63.6738 16.8999C63.4153 16.7441 63.1137 16.6662 62.769 16.6662C62.4011 16.6662 62.0779 16.7557 61.7995 16.9347C61.5211 17.1103 61.304 17.3423 61.1483 17.6307C60.9958 17.9157 60.9179 18.2289 60.9146 18.5703V19.6293C60.9146 20.0734 60.9958 20.4545 61.1582 20.7727C61.3206 21.0876 61.5476 21.3295 61.8393 21.4986C62.131 21.6643 62.4724 21.7472 62.8635 21.7472C63.1253 21.7472 63.3623 21.7107 63.5744 21.6378C63.7865 21.5616 63.9705 21.4505 64.1262 21.3047C64.282 21.1589 64.3997 20.9782 64.4792 20.7628L66.1596 20.9517C66.0536 21.3958 65.8514 21.7836 65.5531 22.1151C65.2581 22.4432 64.8803 22.6984 64.4196 22.8807C63.9589 23.0597 63.4319 23.1491 62.8386 23.1491Z" fill="#7F56D9"/>
<path d="M80 15.5L85 20.5L90 15.5" stroke="#7F56D9" stroke-width="2" stroke-linecap="round" stroke-linejoin="round"/>
</svg>
